<svg id="line" height="512" viewBox="0 0 64 64" width="512" xmlns="http://www.w3.org/2000/svg"><path d="m42 21a21 21 0 1 0 21 21 21.024 21.024 0 0 0 -21-21zm14.122 22.879a2.97 2.97 0 0 0 -1.181-.714 12.993 12.993 0 0 1 -25.882 0 2.963 2.963 0 0 0 -1.181.714 1 1 0 0 1 -1.414-1.414 5.011 5.011 0 0 1 7.072 0 1 1 0 0 1 -1.414 1.414 2.97 2.97 0 0 0 -1.053-.676 11 11 0 0 0 21.862 0 2.984 2.984 0 0 0 -1.053.676 1 1 0 0 1 -1.414-1.414 5.011 5.011 0 0 1 7.072 0 1 1 0 0 1 -1.414 1.414z" fill="#c4a2fc"/><path d="m25 6v-4a1 1 0 0 1 2 0v4a1 1 0 0 1 -2 0zm0 40v4a1 1 0 0 0 2 0v-4a1 1 0 0 0 -2 0zm25-21h-4a1 1 0 0 0 0 2h4a1 1 0 0 0 0-2zm-44 0h-4a1 1 0 0 0 0 2h4a1 1 0 0 0 0-2zm36.264-16.678-2.829 2.828a1 1 0 0 0 1.414 1.414l2.829-2.828a1 1 0 0 0 -1.414-1.414zm-31.113 31.114-2.829 2.828a1 1 0 0 0 1.414 1.414l2.829-2.828a1 1 0 0 0 -1.414-1.414zm29.7 0a1 1 0 0 0 -1.414 1.414l2.829 2.828a1 1 0 0 0 1.414-1.414zm-29.7-26.872a1 1 0 0 0 1.414-1.414l-2.829-2.828a1 1 0 0 0 -1.414 1.414zm29.849 9.714a32.5 32.5 0 0 1 -4.63 16.715l-.529.882a4.379 4.379 0 0 1 -7.669-.3l-1.272-2.55a1.03 1.03 0 0 0 -1.79 0l-1.282 2.555a4.379 4.379 0 0 1 -7.669.3l-.529-.882a32.5 32.5 0 0 1 -4.63-16.72 10.235 10.235 0 0 1 8.263-10.132 10.074 10.074 0 0 1 6.737 1.194 9.936 9.936 0 0 1 5.987-1.292 10.227 10.227 0 0 1 9.013 10.23zm-2 0a8.213 8.213 0 0 0 -7.2-8.24 7.952 7.952 0 0 0 -5.238 1.311 1 1 0 0 1 -1.112 0 8.032 8.032 0 0 0 -5.848-1.23 8.216 8.216 0 0 0 -6.602 8.159 30.487 30.487 0 0 0 4.345 15.686l.529.882a2.378 2.378 0 0 0 4.165-.16l1.277-2.555a3 3 0 0 1 5.368 0l1.277 2.555a2.378 2.378 0 0 0 4.165.16l.529-.882a30.487 30.487 0 0 0 4.345-15.686zm-7.4-6.249a1 1 0 0 0 -.192 1.991 4.182 4.182 0 0 1 3.592 4.258 1 1 0 0 0 2 0 6.2 6.2 0 0 0 -5.4-6.249z" fill="#151a6a"/></svg>